<?xml version="1.0" standalone="no"?>
<!DOCTYPE svg PUBLIC "-//W3C//DTD SVG 20010904//EN"
 "http://www.w3.org/TR/2001/REC-SVG-20010904/DTD/svg10.dtd">
<svg version="1.0" xmlns="http://www.w3.org/2000/svg"
 width="117.000000pt" height="117.000000pt" viewBox="0 0 117.000000 117.000000"
 preserveAspectRatio="xMidYMid meet">
<metadata>
Created by potrace 1.14, written by Peter Selinger 2001-2017
</metadata>
<g transform="translate(0.000000,117.000000) scale(0.100000,-0.100000)"
fill="#000000" stroke="none">
<path d="M377 904 c-4 -4 -7 -17 -7 -29 0 -17 -8 -24 -30 -28 -18 -4 -30 -13
-30 -22 0 -15 5 -17 45 -19 17 -1 20 -9 22 -49 3 -52 17 -87 36 -87 7 0 25 7
41 15 16 9 36 13 43 11 19 -8 16 15 -6 44 l-19 24 -13 -27 c-21 -47 -44 -30
-44 33 0 53 1 54 33 61 59 12 57 31 -2 31 -20 0 -37 4 -37 9 -1 5 -2 14 -3 21
-1 14 -20 21 -29 12z"/>
<path d="M510 865 c0 -19 36 -39 45 -25 8 13 -13 40 -31 40 -8 0 -14 -7 -14
-15z"/>
<path d="M701 784 c-20 -25 -21 -26 -21 -5 0 26 -34 29 -50 4 -8 -13 -13 -14
-16 -5 -3 6 -11 12 -17 12 -10 0 -14 -39 -8 -90 2 -20 27 -10 43 18 17 26 17
26 18 5 0 -33 25 -28 51 8 l22 32 11 -33 c17 -53 38 -51 30 2 -8 48 -20 78
-34 78 -5 0 -18 -12 -29 -26z"/>
<path d="M523 749 c4 -40 21 -69 33 -56 13 12 -7 97 -22 97 -12 0 -14 -9 -11
-41z"/>
<path d="M552 671 c-7 -4 -13 -24 -14 -44 -2 -64 49 -97 99 -62 19 13 22 13
27 -1 12 -31 29 -8 29 40 0 65 -18 81 -38 33 -18 -43 -42 -59 -68 -45 -15 8
-18 17 -13 43 7 35 -2 49 -22 36z"/>
<path d="M736 661 c-33 -36 -25 -217 10 -228 17 -6 27 46 13 63 -6 8 -13 28
-15 44 -3 27 -2 29 16 20 29 -15 65 -12 83 8 23 26 21 45 -9 81 -30 36 -72 41
-98 12z m79 -38 c7 -9 11 -23 8 -30 -8 -20 -41 -15 -48 7 -12 38 17 54 40 23z"/>
<path d="M343 655 c-62 -26 -52 -94 13 -99 33 -2 34 -4 34 -47 0 -30 -1 -31
-35 -26 -19 3 -37 2 -40 -3 -16 -25 48 -75 76 -59 14 7 17 2 17 -36 2 -64 17
-88 50 -80 29 6 62 39 62 61 0 22 -28 16 -35 -7 -4 -12 -14 -19 -23 -17 -13 3
-17 15 -17 58 l0 54 38 9 c59 14 46 33 -20 27 -18 -1 -23 6 -28 33 -4 20 -2
44 4 55 14 26 14 62 1 62 -5 0 -17 -11 -26 -25 -18 -28 -74 -36 -74 -11 0 15
21 26 51 26 24 0 25 16 1 29 -11 6 -28 5 -49 -4z"/>
<path d="M475 648 c-3 -8 -4 -28 -1 -44 2 -16 5 -35 5 -41 1 -7 8 -13 17 -13
14 0 16 8 11 46 -5 50 -22 78 -32 52z"/>
<path d="M549 428 c0 -7 -2 -23 -3 -36 -3 -30 29 -72 55 -72 11 0 29 5 40 11
15 7 24 7 34 -1 16 -13 39 -4 29 12 -3 5 -6 27 -6 49 1 46 -14 60 -28 25 -5
-14 -18 -34 -30 -46 -16 -16 -24 -18 -41 -10 -16 9 -19 17 -13 46 5 30 4 34
-15 34 -11 0 -21 -6 -22 -12z"/>
<path d="M734 398 c3 -13 5 -35 5 -50 1 -43 31 -37 31 6 0 44 -9 66 -26 66 -9
0 -12 -8 -10 -22z"/>
</g>
</svg>
